<svg xmlns="http://www.w3.org/2000/svg" viewBox="0 0 139 52" width="139" height="52" role="img" aria-label="Upwork">
<style>.l{font:700 17px 'Segoe UI', -apple-system, BlinkMacSystemFont, 'Helvetica Neue', Ubuntu, Arial, sans-serif;fill:#F1F5F9}</style>
<rect width="139" height="52" rx="26" fill="#0F172A"/>
<rect x=".75" y=".75" width="137.5" height="50.5" rx="25.25" fill="#84CC16" fill-opacity=".1" stroke="#84CC16" stroke-opacity=".6" stroke-width="1.5"/>
<g transform="translate(32 26)"><g transform="scale(0.9) translate(-12 -12)"><path fill="#84CC16" d="M18.561 13.158c-1.102 0-2.135-.467-3.074-1.227l.228-1.076.008-.042c.207-1.143.849-3.06 2.839-3.06 1.492 0 2.703 1.212 2.703 2.703-.001 1.489-1.212 2.702-2.704 2.702zm0-8.14c-2.539 0-4.51 1.649-5.31 4.366-1.22-1.834-2.148-4.036-2.687-5.892H7.828v7.112c-.002 1.406-1.141 2.546-2.547 2.548-1.405-.002-2.543-1.143-2.545-2.548V3.492H0v7.112c0 2.914 2.37 5.303 5.281 5.303 2.913 0 5.283-2.389 5.283-5.303v-1.19c.529 1.107 1.182 2.229 1.974 3.221l-1.673 7.873h2.797l1.213-5.71c1.063.679 2.285 1.109 3.686 1.109 3 0 5.439-2.452 5.439-5.45 0-3-2.439-5.439-5.439-5.439z"/></g></g>
<text class="l" x="56" y="32">Upwork</text>
</svg>
